<svg xmlns="http://www.w3.org/2000/svg" viewBox="0 0 200 200">
  <!-- Background -->
  <rect width="200" height="200" rx="40" fill="#de3939"/>
  
  <!-- QR Code Frame -->
  <rect x="50" y="50" width="100" height="100" rx="10" fill="none" stroke="white" stroke-width="8"/>
  
  <!-- Corner Markers -->
  <!-- Top Left -->
  <path d="M70 70 L70 85 L85 85 L85 70 L70 70" fill="white"/>
  <!-- Top Right -->
  <path d="M115 70 L115 85 L130 85 L130 70 L115 70" fill="white"/>
  <!-- Bottom Left -->
  <path d="M70 115 L70 130 L85 130 L85 115 L70 115" fill="white"/>
  <!-- Bottom Right -->
  <path d="M115 115 L115 130 L130 130 L130 115 L115 115" fill="white"/>
  
  <!-- Flow Lines -->
  <path d="M40 100 C 20 100, 20 160, 100 160 C 180 160, 180 100, 160 100" 
        fill="none" 
        stroke="white" 
        stroke-width="4"
        stroke-opacity="0.5"/>
</svg>
